<?xml version="1.0" encoding="UTF-8"?>
<svg xmlns="http://www.w3.org/2000/svg" viewBox="0 0 64 64" width="64" height="64">
  <!-- Chess knight silhouette, facing right. Ember crimson. -->
  <path fill="#B8342A" d="
    M 20 56
    L 52 56
    L 52 52
    L 50 50
    L 50 46
    L 48 46
    L 48 42
    Q 48 36 46 32
    Q 44 28 44 24
    Q 44 20 46 17
    Q 45 14 42 12
    Q 40 14 38 14
    Q 34 14 30 12
    Q 26 10 22 12
    Q 18 16 17 22
    Q 16 26 14 28
    L 12 30
    L 12 34
    L 16 34
    L 18 32
    Q 20 31 22 32
    L 24 34
    Q 23 37 24 40
    Q 25 43 24 46
    L 22 50
    L 20 52
    Z
    M 26 22
    Q 27 20 29 20
    Q 30 21 29 23
    Q 28 24 27 23
    Q 26 23 26 22
    Z
  " />
</svg>
